<svg width="241" height="290" viewBox="0 0 241 290" fill="none" xmlns="http://www.w3.org/2000/svg">
<path d="M120.278 1V1.04945C102.658 2.06404 98.7707 21.5009 102.603 27.9087C98.0765 43.8366 127.012 52.6037 99.9169 68.886C94.2576 70.1167 86.4183 68.5366 82.9643 72.6124C71.491 86.1511 79.6536 94.5913 79.2457 105.314C74.912 112.423 74.5756 121.35 73.0428 129.734C62.271 138.479 52.6599 148.538 35.8345 150.431C34.0683 146.404 24.1531 143.707 23.1216 138.711C22.4548 135.48 18.5972 135.749 18.057 137.808C12.5501 136.838 14.4636 148.021 15.579 152.294C11.0806 151.576 6.58588 150.85 2.76059 149.189C1.91945 150.625 0.745818 152.088 5.65424 153.123C5.09058 155.275 5.64134 156.371 8.97957 156.305C14.1965 156.553 15.3327 159.33 21.005 159.33C26.6774 159.33 29.1273 159.149 29.8938 161.453C25.3066 162.379 25.1557 169.193 26.172 172.991C27.1883 176.788 30.0012 177.969 33.5612 180.027C45.0911 189.18 56.7058 200.866 72.01 203L121.001 202.587L169.991 203C185.295 200.866 196.91 189.18 208.44 180.027C212 177.969 214.813 176.788 215.829 172.991C216.846 169.193 216.695 162.379 212.107 161.453C212.874 159.149 215.324 159.33 220.996 159.33C226.669 159.33 227.805 156.553 233.022 156.305C236.358 156.371 236.907 155.275 236.344 153.123C241.252 152.088 240.082 150.625 239.241 149.189C235.415 150.85 230.921 151.576 226.422 152.294C227.538 148.021 229.451 136.838 223.944 137.808C223.404 135.749 219.546 135.48 218.88 138.711C217.848 143.707 207.933 146.404 206.167 150.431C189.341 148.538 179.73 138.479 168.958 129.734C167.426 121.35 167.089 112.423 162.756 105.314C162.348 94.5913 170.507 86.1511 159.034 72.6124C155.58 68.5364 147.744 70.1167 142.084 68.886C114.989 52.6037 143.925 43.8366 139.398 27.9087C143.23 21.5009 139.343 2.06404 121.723 1.04945V1C121.476 1 121.242 1.01937 121.001 1.02583C120.759 1.01937 120.525 1 120.278 1ZM93.4134 118.416C94.7241 124.749 94.4514 131.556 98.2351 137.147C98.2351 137.147 92.8264 147.465 92.0961 151.342C91.3657 155.218 92.3901 159.537 92.3901 159.537C88.2551 160.125 86.1899 161.583 85.813 163.635C74.1488 158.439 57.5342 158.381 44.5825 157.155C57.9206 154.287 75.981 150.075 87.1271 142.269C91.8268 134.535 91.6843 126.398 93.4132 118.416H93.4134ZM148.588 118.416C150.317 126.398 150.174 134.535 154.874 142.269C166.02 150.075 184.08 154.287 197.419 157.155C184.467 158.381 167.852 158.439 156.188 163.635C155.811 161.583 153.746 160.125 149.611 159.537C149.611 159.537 150.635 155.218 149.905 151.342C149.175 147.465 143.766 137.147 143.766 137.147C147.55 131.556 147.277 124.749 148.588 118.416H148.588ZM222.112 142.468C223.085 149.564 222.48 154.321 217.338 152.337C211.646 147.998 219.69 145.638 222.112 142.468ZM19.6589 142.769C22.316 145.744 30.5135 147.487 25.168 152.248C20.1922 154.619 19.2302 149.918 19.6589 142.769Z" fill="black" stroke="black" stroke-width="0.264583"/>
<path d="M14.1152 241L7.92773 220.838H7.76953C7.79297 221.318 7.82812 222.045 7.875 223.018C7.93359 223.979 7.98633 225.004 8.0332 226.094C8.08008 227.184 8.10352 228.168 8.10352 229.047V241H3.23438V215.301H10.6523L16.7344 234.953H16.8398L23.291 215.301H30.709V241H25.6289V228.836C25.6289 228.027 25.6406 227.096 25.6641 226.041C25.6992 224.986 25.7402 223.984 25.7871 223.035C25.834 222.074 25.8691 221.354 25.8926 220.873H25.7344L19.1074 241H14.1152ZM42.1348 221.348V241H36.7734V221.348H42.1348ZM39.4629 213.648C40.2598 213.648 40.9453 213.836 41.5195 214.211C42.0938 214.574 42.3809 215.26 42.3809 216.268C42.3809 217.264 42.0938 217.955 41.5195 218.342C40.9453 218.717 40.2598 218.904 39.4629 218.904C38.6543 218.904 37.9629 218.717 37.3887 218.342C36.8262 217.955 36.5449 217.264 36.5449 216.268C36.5449 215.26 36.8262 214.574 37.3887 214.211C37.9629 213.836 38.6543 213.648 39.4629 213.648ZM58.9395 220.979C61.0371 220.979 62.7246 221.553 64.002 222.701C65.2793 223.838 65.918 225.666 65.918 228.186V241H60.5566V229.521C60.5566 228.115 60.2988 227.055 59.7832 226.34C59.2793 225.625 58.4824 225.268 57.3926 225.268C55.752 225.268 54.6328 225.824 54.0352 226.938C53.4375 228.051 53.1387 229.656 53.1387 231.754V241H47.7773V221.348H51.873L52.5938 223.861H52.8926C53.3145 223.182 53.8359 222.631 54.457 222.209C55.0898 221.787 55.7871 221.477 56.5488 221.277C57.3223 221.078 58.1191 220.979 58.9395 220.979ZM76.7988 213.648V219.221C76.7988 220.193 76.7637 221.119 76.6934 221.998C76.6348 222.877 76.5879 223.498 76.5527 223.861H76.834C77.2559 223.182 77.7539 222.631 78.3281 222.209C78.9141 221.787 79.5586 221.477 80.2617 221.277C80.9648 221.078 81.7207 220.979 82.5293 220.979C83.9473 220.979 85.1836 221.23 86.2383 221.734C87.293 222.227 88.1133 223.006 88.6992 224.072C89.2852 225.127 89.5781 226.498 89.5781 228.186V241H84.2168V229.521C84.2168 228.115 83.959 227.055 83.4434 226.34C82.9277 225.625 82.1309 225.268 81.0527 225.268C79.9746 225.268 79.125 225.52 78.5039 226.023C77.8828 226.516 77.4434 227.248 77.1855 228.221C76.9277 229.182 76.7988 230.359 76.7988 231.754V241H71.4375V213.648H76.7988ZM103.148 220.943C105.785 220.943 107.807 221.518 109.213 222.666C110.619 223.814 111.322 225.561 111.322 227.904V241H107.578L106.541 238.328H106.4C105.838 239.031 105.264 239.605 104.678 240.051C104.092 240.496 103.418 240.824 102.656 241.035C101.895 241.246 100.969 241.352 99.8789 241.352C98.7188 241.352 97.6758 241.129 96.75 240.684C95.8359 240.238 95.1152 239.559 94.5879 238.645C94.0605 237.719 93.7969 236.547 93.7969 235.129C93.7969 233.043 94.5293 231.508 95.9941 230.523C97.459 229.527 99.6562 228.977 102.586 228.871L105.996 228.766V227.904C105.996 226.873 105.727 226.117 105.188 225.637C104.648 225.156 103.898 224.916 102.938 224.916C101.988 224.916 101.057 225.051 100.143 225.32C99.2285 225.59 98.3145 225.93 97.4004 226.34L95.625 222.719C96.668 222.168 97.834 221.734 99.123 221.418C100.424 221.102 101.766 220.943 103.148 220.943ZM105.996 231.895L103.922 231.965C102.188 232.012 100.98 232.322 100.301 232.896C99.6328 233.471 99.2988 234.227 99.2988 235.164C99.2988 235.984 99.5391 236.57 100.02 236.922C100.5 237.262 101.127 237.432 101.9 237.432C103.049 237.432 104.016 237.092 104.801 236.412C105.598 235.732 105.996 234.766 105.996 233.512V231.895ZM149.291 220.979C151.518 220.979 153.199 221.553 154.336 222.701C155.484 223.838 156.059 225.666 156.059 228.186V241H150.68V229.521C150.68 228.115 150.439 227.055 149.959 226.34C149.479 225.625 148.734 225.268 147.727 225.268C146.309 225.268 145.301 225.777 144.703 226.797C144.105 227.805 143.807 229.252 143.807 231.139V241H138.445V229.521C138.445 228.584 138.34 227.799 138.129 227.166C137.918 226.533 137.596 226.059 137.162 225.742C136.729 225.426 136.172 225.268 135.492 225.268C134.496 225.268 133.711 225.52 133.137 226.023C132.574 226.516 132.17 227.248 131.924 228.221C131.689 229.182 131.572 230.359 131.572 231.754V241H126.211V221.348H130.307L131.027 223.861H131.326C131.725 223.182 132.223 222.631 132.82 222.209C133.43 221.787 134.098 221.477 134.824 221.277C135.551 221.078 136.289 220.979 137.039 220.979C138.48 220.979 139.699 221.213 140.695 221.682C141.703 222.15 142.477 222.877 143.016 223.861H143.49C144.076 222.854 144.902 222.121 145.969 221.664C147.047 221.207 148.154 220.979 149.291 220.979ZM169.682 220.979C171.498 220.979 173.062 221.33 174.375 222.033C175.688 222.725 176.701 223.732 177.416 225.057C178.131 226.381 178.488 227.998 178.488 229.908V232.51H165.814C165.873 234.021 166.324 235.211 167.168 236.078C168.023 236.934 169.207 237.361 170.719 237.361C171.973 237.361 173.121 237.232 174.164 236.975C175.207 236.717 176.279 236.33 177.381 235.814V239.963C176.408 240.443 175.389 240.795 174.322 241.018C173.268 241.24 171.984 241.352 170.473 241.352C168.504 241.352 166.758 240.988 165.234 240.262C163.723 239.535 162.533 238.428 161.666 236.939C160.811 235.451 160.383 233.576 160.383 231.314C160.383 229.018 160.77 227.107 161.543 225.584C162.328 224.049 163.418 222.9 164.812 222.139C166.207 221.365 167.83 220.979 169.682 220.979ZM169.717 224.793C168.674 224.793 167.807 225.127 167.115 225.795C166.436 226.463 166.043 227.512 165.938 228.941H173.461C173.449 228.145 173.303 227.436 173.021 226.814C172.752 226.193 172.342 225.701 171.791 225.338C171.252 224.975 170.561 224.793 169.717 224.793ZM194.01 220.979C196.107 220.979 197.795 221.553 199.072 222.701C200.35 223.838 200.988 225.666 200.988 228.186V241H195.627V229.521C195.627 228.115 195.369 227.055 194.854 226.34C194.35 225.625 193.553 225.268 192.463 225.268C190.822 225.268 189.703 225.824 189.105 226.938C188.508 228.051 188.209 229.656 188.209 231.754V241H182.848V221.348H186.943L187.664 223.861H187.963C188.385 223.182 188.906 222.631 189.527 222.209C190.16 221.787 190.857 221.477 191.619 221.277C192.393 221.078 193.189 220.979 194.01 220.979ZM214.787 237.08C215.373 237.08 215.941 237.021 216.492 236.904C217.055 236.787 217.611 236.641 218.162 236.465V240.455C217.588 240.713 216.873 240.924 216.018 241.088C215.174 241.264 214.248 241.352 213.24 241.352C212.068 241.352 211.014 241.164 210.076 240.789C209.15 240.402 208.418 239.74 207.879 238.803C207.352 237.854 207.088 236.535 207.088 234.848V225.373H204.521V223.105L207.475 221.312L209.021 217.164H212.449V221.348H217.951V225.373H212.449V234.848C212.449 235.598 212.66 236.16 213.082 236.535C213.516 236.898 214.084 237.08 214.787 237.08ZM230.256 220.979C232.072 220.979 233.637 221.33 234.949 222.033C236.262 222.725 237.275 223.732 237.99 225.057C238.705 226.381 239.062 227.998 239.062 229.908V232.51H226.389C226.447 234.021 226.898 235.211 227.742 236.078C228.598 236.934 229.781 237.361 231.293 237.361C232.547 237.361 233.695 237.232 234.738 236.975C235.781 236.717 236.854 236.33 237.955 235.814V239.963C236.982 240.443 235.963 240.795 234.896 241.018C233.842 241.24 232.559 241.352 231.047 241.352C229.078 241.352 227.332 240.988 225.809 240.262C224.297 239.535 223.107 238.428 222.24 236.939C221.385 235.451 220.957 233.576 220.957 231.314C220.957 229.018 221.344 227.107 222.117 225.584C222.902 224.049 223.992 222.9 225.387 222.139C226.781 221.365 228.404 220.979 230.256 220.979ZM230.291 224.793C229.248 224.793 228.381 225.127 227.689 225.795C227.01 226.463 226.617 227.512 226.512 228.941H234.035C234.023 228.145 233.877 227.436 233.596 226.814C233.326 226.193 232.916 225.701 232.365 225.338C231.826 224.975 231.135 224.793 230.291 224.793Z" fill="url(#paint0_linear_127_4)"/>
<path d="M96.4043 271.863C96.4043 273.387 96.0352 274.711 95.2969 275.836C94.5586 276.961 93.4805 277.828 92.0625 278.438C90.6562 279.047 88.9453 279.352 86.9297 279.352C86.0391 279.352 85.166 279.293 84.3105 279.176C83.4668 279.059 82.6523 278.889 81.8672 278.666C81.0938 278.432 80.3555 278.145 79.6523 277.805V272.742C80.8711 273.281 82.1367 273.768 83.4492 274.201C84.7617 274.635 86.0625 274.852 87.3516 274.852C88.2422 274.852 88.957 274.734 89.4961 274.5C90.0469 274.266 90.4453 273.943 90.6914 273.533C90.9375 273.123 91.0605 272.654 91.0605 272.127C91.0605 271.482 90.8438 270.932 90.4102 270.475C89.9766 270.018 89.3789 269.59 88.6172 269.191C87.8672 268.793 87.0176 268.365 86.0684 267.908C85.4707 267.627 84.8203 267.287 84.1172 266.889C83.4141 266.479 82.7461 265.98 82.1133 265.395C81.4805 264.809 80.959 264.1 80.5488 263.268C80.1504 262.424 79.9512 261.416 79.9512 260.244C79.9512 258.709 80.3027 257.396 81.0059 256.307C81.709 255.217 82.7109 254.385 84.0117 253.811C85.3242 253.225 86.8711 252.932 88.6523 252.932C89.9883 252.932 91.2598 253.09 92.4668 253.406C93.6855 253.711 94.957 254.156 96.2812 254.742L94.5234 258.979C93.3398 258.498 92.2793 258.129 91.3418 257.871C90.4043 257.602 89.4492 257.467 88.4766 257.467C87.7969 257.467 87.2168 257.578 86.7363 257.801C86.2559 258.012 85.8926 258.316 85.6465 258.715C85.4004 259.102 85.2773 259.553 85.2773 260.068C85.2773 260.678 85.4531 261.193 85.8047 261.615C86.168 262.025 86.707 262.424 87.4219 262.811C88.1484 263.197 89.0508 263.648 90.1289 264.164C91.4414 264.785 92.5605 265.436 93.4863 266.115C94.4238 266.783 95.1445 267.574 95.6484 268.488C96.1523 269.391 96.4043 270.516 96.4043 271.863ZM108.691 258.943C111.328 258.943 113.35 259.518 114.756 260.666C116.162 261.814 116.865 263.561 116.865 265.904V279H113.121L112.084 276.328H111.943C111.381 277.031 110.807 277.605 110.221 278.051C109.635 278.496 108.961 278.824 108.199 279.035C107.438 279.246 106.512 279.352 105.422 279.352C104.262 279.352 103.219 279.129 102.293 278.684C101.379 278.238 100.658 277.559 100.131 276.645C99.6035 275.719 99.3398 274.547 99.3398 273.129C99.3398 271.043 100.072 269.508 101.537 268.523C103.002 267.527 105.199 266.977 108.129 266.871L111.539 266.766V265.904C111.539 264.873 111.27 264.117 110.73 263.637C110.191 263.156 109.441 262.916 108.48 262.916C107.531 262.916 106.6 263.051 105.686 263.32C104.771 263.59 103.857 263.93 102.943 264.34L101.168 260.719C102.211 260.168 103.377 259.734 104.666 259.418C105.967 259.102 107.309 258.943 108.691 258.943ZM111.539 269.895L109.465 269.965C107.73 270.012 106.523 270.322 105.844 270.896C105.176 271.471 104.842 272.227 104.842 273.164C104.842 273.984 105.082 274.57 105.562 274.922C106.043 275.262 106.67 275.432 107.443 275.432C108.592 275.432 109.559 275.092 110.344 274.412C111.141 273.732 111.539 272.766 111.539 271.512V269.895ZM140.438 259.348V279H136.324L135.604 276.486H135.322C134.9 277.154 134.373 277.699 133.74 278.121C133.107 278.543 132.41 278.854 131.648 279.053C130.887 279.252 130.096 279.352 129.275 279.352C127.869 279.352 126.645 279.105 125.602 278.613C124.559 278.109 123.744 277.33 123.158 276.275C122.584 275.221 122.297 273.85 122.297 272.162V259.348H127.658V270.826C127.658 272.232 127.91 273.293 128.414 274.008C128.918 274.723 129.721 275.08 130.822 275.08C131.912 275.08 132.768 274.834 133.389 274.342C134.01 273.838 134.443 273.105 134.689 272.145C134.947 271.172 135.076 269.988 135.076 268.594V259.348H140.438ZM152.285 279.352C150.094 279.352 148.307 278.496 146.924 276.785C145.553 275.062 144.867 272.537 144.867 269.209C144.867 265.846 145.564 263.303 146.959 261.58C148.354 259.846 150.176 258.979 152.426 258.979C153.363 258.979 154.189 259.107 154.904 259.365C155.619 259.623 156.234 259.969 156.75 260.402C157.277 260.836 157.723 261.322 158.086 261.861H158.262C158.191 261.486 158.104 260.936 157.998 260.209C157.904 259.471 157.857 258.715 157.857 257.941V251.648H163.236V279H159.123L158.086 276.451H157.857C157.518 276.99 157.09 277.482 156.574 277.928C156.07 278.361 155.467 278.707 154.764 278.965C154.061 279.223 153.234 279.352 152.285 279.352ZM154.166 275.08C155.631 275.08 156.662 274.646 157.26 273.779C157.869 272.9 158.191 271.582 158.227 269.824V269.244C158.227 267.334 157.934 265.875 157.348 264.867C156.762 263.848 155.672 263.338 154.078 263.338C152.895 263.338 151.969 263.848 151.301 264.867C150.633 265.887 150.299 267.357 150.299 269.279C150.299 271.201 150.633 272.648 151.301 273.621C151.98 274.594 152.936 275.08 154.166 275.08ZM176.895 258.943C179.531 258.943 181.553 259.518 182.959 260.666C184.365 261.814 185.068 263.561 185.068 265.904V279H181.324L180.287 276.328H180.146C179.584 277.031 179.01 277.605 178.424 278.051C177.838 278.496 177.164 278.824 176.402 279.035C175.641 279.246 174.715 279.352 173.625 279.352C172.465 279.352 171.422 279.129 170.496 278.684C169.582 278.238 168.861 277.559 168.334 276.645C167.807 275.719 167.543 274.547 167.543 273.129C167.543 271.043 168.275 269.508 169.74 268.523C171.205 267.527 173.402 266.977 176.332 266.871L179.742 266.766V265.904C179.742 264.873 179.473 264.117 178.934 263.637C178.395 263.156 177.645 262.916 176.684 262.916C175.734 262.916 174.803 263.051 173.889 263.32C172.975 263.59 172.061 263.93 171.146 264.34L169.371 260.719C170.414 260.168 171.58 259.734 172.869 259.418C174.17 259.102 175.512 258.943 176.895 258.943ZM179.742 269.895L177.668 269.965C175.934 270.012 174.727 270.322 174.047 270.896C173.379 271.471 173.045 272.227 173.045 273.164C173.045 273.984 173.285 274.57 173.766 274.922C174.246 275.262 174.873 275.432 175.646 275.432C176.795 275.432 177.762 275.092 178.547 274.412C179.344 273.732 179.742 272.766 179.742 271.512V269.895ZM183.803 251.42V251.789C183.463 252.117 183.018 252.521 182.467 253.002C181.916 253.482 181.324 253.986 180.691 254.514C180.059 255.029 179.438 255.527 178.828 256.008C178.219 256.477 177.686 256.869 177.229 257.186H173.66V256.711C174.047 256.266 174.492 255.738 174.996 255.129C175.512 254.508 176.021 253.869 176.525 253.213C177.029 252.557 177.451 251.959 177.791 251.42H183.803ZM195.281 279L187.793 259.348H193.4L197.197 270.545C197.408 271.201 197.572 271.893 197.689 272.619C197.818 273.346 197.906 273.996 197.953 274.57H198.094C198.129 273.949 198.211 273.287 198.34 272.584C198.48 271.881 198.662 271.201 198.885 270.545L202.664 259.348H208.271L200.783 279H195.281ZM219.205 258.979C221.021 258.979 222.586 259.33 223.898 260.033C225.211 260.725 226.225 261.732 226.939 263.057C227.654 264.381 228.012 265.998 228.012 267.908V270.51H215.338C215.396 272.021 215.848 273.211 216.691 274.078C217.547 274.934 218.73 275.361 220.242 275.361C221.496 275.361 222.645 275.232 223.688 274.975C224.73 274.717 225.803 274.33 226.904 273.814V277.963C225.932 278.443 224.912 278.795 223.846 279.018C222.791 279.24 221.508 279.352 219.996 279.352C218.027 279.352 216.281 278.988 214.758 278.262C213.246 277.535 212.057 276.428 211.189 274.939C210.334 273.451 209.906 271.576 209.906 269.314C209.906 267.018 210.293 265.107 211.066 263.584C211.852 262.049 212.941 260.9 214.336 260.139C215.73 259.365 217.354 258.979 219.205 258.979ZM219.24 262.793C218.197 262.793 217.33 263.127 216.639 263.795C215.959 264.463 215.566 265.512 215.461 266.941H222.984C222.973 266.145 222.826 265.436 222.545 264.814C222.275 264.193 221.865 263.701 221.314 263.338C220.775 262.975 220.084 262.793 219.24 262.793ZM237.732 279H232.371V251.648H237.732V279Z" fill="url(#paint1_linear_127_4)"/>
<defs>
<linearGradient id="paint0_linear_127_4" x1="120.5" y1="216.92" x2="120.5" y2="240.864" gradientUnits="userSpaceOnUse">
<stop stop-color="#0A01EA"/>
<stop offset="1" stop-color="#00006C"/>
</linearGradient>
<linearGradient id="paint1_linear_127_4" x1="159.5" y1="241" x2="159.5" y2="290" gradientUnits="userSpaceOnUse">
<stop stop-color="#0401E8"/>
<stop offset="1" stop-color="#131371"/>
</linearGradient>
</defs>
</svg>
